EAC extraction logfile from 23. October 2007, 20:15 for CD
Apocalyptica / Worlds Collide

Used drive  : _NEC    DVD_RW ND-2500A   Adapter: 3  ID: 0
Read mode   : Secure with NO C2, accurate stream, disable cache
Read offset correction : 48
Overread into Lead-In and Lead-Out : No

Used output format : C:\Program Files\FLAC\flac.exe   (User Defined Encoder)
                     192 kBit/s
                     Additional command line options : -V -8 -T "artist=%a" -T "title=%t" -T "album=%g" -T "date=%y" -T "tracknumber=%n" -T "genre=%m" %s

Other options      : 
    Fill up missing offset samples with silence : Yes
    Delete leading and trailing silent blocks : No
    Native Win32 interface for Win NT & 2000


Track 13
     Filename C:\Documents and Settings\Mark Evans\Desktop\Apocalyptica - Worlds Collide\13 - Apocalyptica - 13. Lies (bonus track for Japan only).wav

     Peak level 100.0 %
     Track quality 100.0 %
     Test CRC D60F0F2D
     Copy CRC D60F0F2D
     Copy OK

No errors occured


End of status report

------------------------------------------------------------

EAC extraction logfile from 23. October 2007, 20:17 for CD
Apocalyptica / Worlds Collide

Used drive  : _NEC    DVD_RW ND-2500A   Adapter: 3  ID: 0
Read mode   : Secure with NO C2, accurate stream, disable cache
Read offset correction : 48
Overread into Lead-In and Lead-Out : No

Used output format : C:\Program Files\FLAC\flac.exe   (User Defined Encoder)
                     192 kBit/s
                     Additional command line options : -V -8 -T "artist=%a" -T "title=%t" -T "album=%g" -T "date=%y" -T "tracknumber=%n" -T "genre=%m" %s

Other options      : 
    Fill up missing offset samples with silence : Yes
    Delete leading and trailing silent blocks : No
    Native Win32 interface for Win NT & 2000


Track 14
     Filename C:\Documents and Settings\Mark Evans\Desktop\Apocalyptica - Worlds Collide\14 - Apocalyptica - 14. Dreamer (bonus track).wav

     Peak level 97.7 %
     Track quality 99.9 %
     Test CRC DE63AAE5
     Copy CRC DE63AAE5
     Copy OK

No errors occured


End of status report

------------------------------------------------------------

EAC extraction logfile from 23. October 2007, 21:04 for CD
Apocalyptica / Worlds Collide

Used drive  : _NEC    DVD_RW ND-2500A   Adapter: 3  ID: 0
Read mode   : Secure with NO C2, accurate stream, disable cache
Read offset correction : 48
Overread into Lead-In and Lead-Out : No

Used output format : C:\Program Files\FLAC\flac.exe   (User Defined Encoder)
                     192 kBit/s
                     Additional command line options : -V -8 -T "artist=%a" -T "title=%t" -T "album=%g" -T "date=%y" -T "tracknumber=%n" -T "genre=%m" %s

Other options      : 
    Fill up missing offset samples with silence : Yes
    Delete leading and trailing silent blocks : No
    Native Win32 interface for Win NT & 2000


Track  1
     Filename C:\Documents and Settings\Mark Evans\Desktop\Apocalyptica - Worlds Collide\01 - Apocalyptica - 1. Worlds Collide.wav

     Pre-gap length  0:00:02.00

     Peak level 100.0 %
     Track quality 100.0 %
     Test CRC 3E893BF4
     Copy CRC 3E893BF4
     Copy OK

Track  2
     Filename C:\Documents and Settings\Mark Evans\Desktop\Apocalyptica - Worlds Collide\02 - Apocalyptica - 2. Grace.wav

     Pre-gap length  0:00:00.81

     Peak level 100.0 %
     Track quality 100.0 %
     Test CRC BFDF077A
     Copy CRC BFDF077A
     Copy OK

Track  3
     Filename C:\Documents and Settings\Mark Evans\Desktop\Apocalyptica - Worlds Collide\03 - Apocalyptica - 3. I'm Not Jesus.wav

     Pre-gap length  0:00:01.20

     Peak level 100.0 %
     Track quality 100.0 %
     Test CRC C07B63A7
     Copy CRC C07B63A7
     Copy OK

Track  4
     Filename C:\Documents and Settings\Mark Evans\Desktop\Apocalyptica - Worlds Collide\04 - Apocalyptica - 4. Ion.wav

     Pre-gap length  0:00:00.53

     Peak level 100.0 %
     Track quality 100.0 %
     Test CRC 2FEADFDA
     Copy CRC 2FEADFDA
     Copy OK

Track  5
     Filename C:\Documents and Settings\Mark Evans\Desktop\Apocalyptica - Worlds Collide\05 - Apocalyptica - 5. Helden.wav

     Pre-gap length  0:00:01.52

     Peak level 100.0 %
     Track quality 99.9 %
     Test CRC 3A061583
     Copy CRC 3A061583
     Copy OK

Track  6
     Filename C:\Documents and Settings\Mark Evans\Desktop\Apocalyptica - Worlds Collide\06 - Apocalyptica - 6. Stroke.wav

     Pre-gap length  0:00:04.16

     Peak level 100.0 %
     Track quality 100.0 %
     Test CRC 6916073D
     Copy CRC 6916073D
     Copy OK

Track  7
     Filename C:\Documents and Settings\Mark Evans\Desktop\Apocalyptica - Worlds Collide\07 - Apocalyptica - 7. Last Hope.wav

     Pre-gap length  0:00:00.49

     Peak level 100.0 %
     Track quality 100.0 %
     Test CRC 0D83A932
     Copy CRC 0D83A932
     Copy OK

Track  8
     Filename C:\Documents and Settings\Mark Evans\Desktop\Apocalyptica - Worlds Collide\08 - Apocalyptica - 8. I Don't Care.wav

     Pre-gap length  0:00:02.50

     Peak level 100.0 %
     Track quality 99.9 %
     Test CRC 77F91992
     Copy CRC 77F91992
     Copy OK

Track  9
     Filename C:\Documents and Settings\Mark Evans\Desktop\Apocalyptica - Worlds Collide\09 - Apocalyptica - 9. Burn.wav

     Pre-gap length  0:00:00.78

     Peak level 100.0 %
     Track quality 100.0 %
     Test CRC 2FBB73E1
     Copy CRC 2FBB73E1
     Copy OK

Track 10
     Filename C:\Documents and Settings\Mark Evans\Desktop\Apocalyptica - Worlds Collide\10 - Apocalyptica - 10. S.O.S (Anything But Love).wav

     Pre-gap length  0:00:01.41

     Peak level 100.0 %
     Track quality 100.0 %
     Test CRC 6241415A
     Copy CRC 6241415A
     Copy OK

Track 11
     Filename C:\Documents and Settings\Mark Evans\Desktop\Apocalyptica - Worlds Collide\11 - Apocalyptica - 11. Peace.wav

     Pre-gap length  0:00:02.89

     Peak level 100.0 %
     Track quality 100.0 %
     Test CRC 304CA093
     Copy CRC 304CA093
     Copy OK

Track 12
     Filename C:\Documents and Settings\Mark Evans\Desktop\Apocalyptica - Worlds Collide\12 - Apocalyptica - 12. Ural (bonus track).wav

     Pre-gap length  0:00:05.89

     Peak level 100.0 %
     Track quality 100.0 %
     Copy CRC 77161BF9
     Copy OK

No errors occured


End of status report

------------------------------------------------------------

EAC extraction logfile from 23. October 2007, 21:07 for CD
Apocalyptica / Worlds Collide

Used drive  : _NEC    DVD_RW ND-2500A   Adapter: 3  ID: 0
Read mode   : Secure with NO C2, accurate stream, disable cache
Read offset correction : 48
Overread into Lead-In and Lead-Out : No

Used output format : C:\Program Files\FLAC\flac.exe   (User Defined Encoder)
                     192 kBit/s
                     Additional command line options : -V -8 -T "artist=%a" -T "title=%t" -T "album=%g" -T "date=%y" -T "tracknumber=%n" -T "genre=%m" %s

Other options      : 
    Fill up missing offset samples with silence : Yes
    Delete leading and trailing silent blocks : No
    Native Win32 interface for Win NT & 2000


Track 12
     Filename C:\Documents and Settings\Mark Evans\Desktop\Apocalyptica - Worlds Collide\12 - Apocalyptica - 12. Ural (bonus track).wav

     Pre-gap length  0:00:05.89

     Peak level 100.0 %
     Track quality 100.0 %
     Test CRC 77161BF9
     Copy CRC 77161BF9
     Copy OK

No errors occured


End of status report
